<svg width="472" height="384" viewBox="0 0 472 384" fill="none" xmlns="http://www.w3.org/2000/svg">
<g clip-path="url(#clip0_2018_307)">
<path d="M114.946 45.5299L53.7266 52.9919L60.5641 113.071L121.783 105.609L114.946 45.5299Z" fill="#2F2E41"/>
<path d="M83.6563 80.1623C100.255 80.1623 113.712 66.2363 113.712 49.0577C113.712 31.8791 100.255 17.9531 83.6563 17.9531C67.0572 17.9531 53.6009 31.8791 53.6009 49.0577C53.6009 66.2363 67.0572 80.1623 83.6563 80.1623Z" fill="#FFB6B6"/>
<path d="M63.8404 0.814126C45.1107 6.1953 46.8551 13.4208 41.18 17.9737C31.1816 25.9951 29.1406 45.8879 36.2793 57.9806C38.1867 61.2116 41.9188 65.4815 40.9376 70.7028C40.1844 74.7108 37.0049 77.4087 36.4061 77.9001C31.5047 81.922 34.5 77.483 32.4326 80.5994C30.1508 84.0393 34.7368 87.9464 32.8689 93.8362C31.2131 99.0578 26.5905 99.1975 26.3506 102.383C25.9375 107.869 38.9091 117.217 51.3121 114.846C62.3553 112.734 69.5147 101.989 71.2399 92.4817C72.3954 86.1127 71.9926 75.449 66.6426 70.892C65.8922 70.2529 63.8665 68.7305 61.799 65.9449C60.1629 63.7405 58.009 60.8387 58.8177 58.5558C59.6792 56.1238 63 56.9438 64.7778 54.5068C67.1888 51.2019 63.3516 46.5825 63.286 41.3987C63.175 32.6209 73.8597 20.7449 86.6289 20.8334C101.115 20.9336 108.18 36.3614 108.921 38.0511C110.458 41.5532 110.836 45.0764 111.593 52.1229C112.679 62.2352 113.359 68.5733 111.037 75.4482C107.697 85.3363 101.972 85.0099 101.167 92.1562C99.9125 103.298 112.856 112.757 114.333 113.809C125.283 121.604 140.581 122.484 142.646 118.11C144.506 114.169 133.86 109.689 132.895 98.2563C132.059 88.3487 139.437 84.3981 136.991 77.8221C134.298 70.5834 124.657 73.4848 119.542 65.5515C114.768 58.1465 121.417 52.9047 118.421 36.8932C117.787 33.5061 115.634 23.8259 108.422 14.8545C105.244 10.9021 102.013 6.88237 96.6234 5.2176C90.5904 3.35391 73.7478 -2.03231 63.8404 0.814126Z" fill="#2F2E41"/>
<path d="M54.2825 29.6667C55.8267 36.3365 66.0187 38.455 70.3027 38.7889C72.117 38.9304 78.2483 39.4081 83.8999 36.0241C85.9887 34.7732 86.6894 33.7869 88.9287 33.1961C91.9604 32.3963 93.6502 33.4195 98.6769 34.2228C104.266 35.1161 107.061 35.5628 108.301 34.1573C110.327 31.8597 107.84 25.4544 104.698 21.3064C98.8871 13.6367 89.6806 12.1645 85.3868 11.4778C80.4811 10.6933 70.526 9.10123 62.2901 15.4006C61.189 16.2428 52.7136 22.8901 54.2825 29.6667Z" fill="#2F2E41"/>
<path d="M462.783 149.525C462.922 147.948 459.361 147.081 459.558 145.703C459.755 144.33 463.359 144.713 467.239 142.327C467.939 141.897 472.348 139.186 471.978 137.053C471.276 133.011 454.021 134.604 452.493 128.71C452.157 127.417 452.543 125.625 451.631 121.564C451.268 119.948 450.954 119.106 450.277 118.825C449.316 118.426 448.464 119.505 446.043 121.067C442.411 123.41 441.778 122.63 439.162 124.71C437.22 126.255 436.549 127.496 435.728 127.22C434.565 126.83 435.157 124.093 433.832 123.386C432.48 122.664 430.044 124.543 428.539 126.188C425.715 129.276 425.352 132.437 424.367 135.309C423.296 138.431 420.992 142.671 415.431 146.953L364.737 183.107C375.399 175.883 405.194 156.505 416.785 149.691C420.131 147.725 423.641 145.817 427.395 146.838C431.01 147.821 434.415 151.4 440.221 153.869C440.899 154.158 442.796 154.936 443.68 154.111C444.41 153.43 443.783 152.274 444.455 151.627C445.358 150.76 447.22 152.135 450.315 152.672C452.497 153.05 454.182 152.819 455.632 152.621C456.069 152.561 462.598 151.624 462.783 149.525Z" fill="#F2F2F2"/>
<path d="M379.241 125.987C378.534 125.461 377.095 127.02 376.499 126.522C375.904 126.026 377.126 124.306 377.114 121.647C377.111 121.167 377.098 118.145 375.98 117.718C373.86 116.908 369.637 126.132 366.401 125.208C365.691 125.005 364.952 124.292 362.763 123.584C361.892 123.302 361.402 123.219 361.073 123.481C360.607 123.854 360.873 124.598 360.915 126.279C360.978 128.799 360.426 128.896 360.658 130.825C360.83 132.257 361.225 132.956 360.857 133.294C360.336 133.772 359.209 132.681 358.491 133.15C357.759 133.629 357.947 135.408 358.294 136.647C358.943 138.973 360.337 140.069 361.415 141.398C362.587 142.843 363.933 145.237 364.359 149.297L366.878 185.478C366.529 177.978 365.935 157.252 366.048 149.399C366.081 147.132 366.189 144.799 367.756 143.186C369.266 141.634 371.946 140.937 374.792 138.7C375.124 138.439 376.041 137.7 375.905 137.013C375.792 136.446 375.063 136.431 374.95 135.903C374.799 135.194 375.989 134.645 377.136 133.228C377.945 132.229 378.322 131.306 378.646 130.512C378.744 130.273 380.183 126.686 379.241 125.987Z" fill="#F2F2F2"/>
<path d="M391.034 139.799L393.355 135.553L393.757 135.401C395.619 134.697 397.017 133.695 397.915 132.423C398.058 132.22 398.191 132.011 398.326 131.797C398.862 130.95 399.529 129.897 400.872 129.094C401.622 128.648 403.502 127.72 404.584 128.82C404.878 129.112 405.017 129.453 405.078 129.776C405.137 129.751 405.197 129.727 405.262 129.7C406.058 129.386 406.537 129.354 406.998 129.324C407.352 129.3 407.718 129.276 408.401 129.083C408.7 128.998 408.947 128.911 409.156 128.839C409.787 128.621 410.575 128.388 411.293 128.939C412.04 129.556 411.982 130.522 411.944 131.161C411.877 132.301 411.7 133.027 411.583 133.508C411.54 133.684 411.492 133.882 411.489 133.952C411.473 134.518 413.747 135.681 414.601 136.123C416.522 137.111 418.185 137.966 418.013 139.543C417.892 140.671 416.827 141.486 414.759 142.027C414.115 142.195 413.521 142.244 413.017 142.254C413.171 142.624 413.234 143.061 413.051 143.536C412.616 144.661 411.158 145.023 408.716 144.616C408.109 144.517 407.293 144.38 406.349 143.902C405.905 143.676 405.538 143.427 405.227 143.209C405.093 143.386 404.914 143.553 404.665 143.675C403.933 144.037 403.08 143.832 402.142 143.025C401.098 142.154 400.354 141.271 399.697 140.493C399.123 139.815 398.627 139.232 398.139 138.916C397.226 138.341 396.06 138.558 394.631 138.901L391.034 139.799Z" fill="#F2F2F2"/>
<path d="M409.357 117.888L404.799 116.642L404.555 116.278C403.425 114.593 402.134 113.447 400.717 112.871C400.492 112.779 400.262 112.7 400.028 112.618C399.1 112.296 397.947 111.896 396.856 110.755C396.248 110.117 394.905 108.471 395.658 107.108C395.857 106.74 396.14 106.515 396.426 106.372C396.388 106.319 396.35 106.265 396.309 106.207C395.813 105.49 395.662 105.019 395.517 104.565C395.405 104.216 395.29 103.856 394.935 103.222C394.78 102.943 394.636 102.718 394.516 102.527C394.152 101.951 393.734 101.221 394.068 100.363C394.455 99.4585 395.372 99.2715 395.979 99.1472C397.062 98.9251 397.785 98.9178 398.265 98.9132C398.44 98.9119 398.637 98.9095 398.704 98.8947C399.237 98.7671 399.746 96.1958 399.944 95.2291C400.38 93.0551 400.757 91.174 402.274 90.9453C403.359 90.7808 404.391 91.6405 405.421 93.573C405.742 94.1748 405.938 94.7572 406.075 95.2592C406.382 95.0117 406.774 94.8378 407.265 94.9005C408.427 95.0503 409.135 96.4178 409.374 98.9657C409.435 99.5991 409.514 100.451 409.307 101.516C409.209 102.018 409.069 102.449 408.944 102.815C409.143 102.904 409.344 103.041 409.522 103.26C410.046 103.901 410.071 104.807 409.555 105.951C409.005 107.217 408.368 108.185 407.808 109.04C407.319 109.787 406.901 110.431 406.729 111C406.424 112.06 406.922 113.171 407.605 114.515L409.357 117.888Z" fill="#F2F2F2"/>
<path d="M415.475 104.839L417.796 100.593L418.199 100.441C420.06 99.7368 421.458 98.7351 422.356 97.4627C422.499 97.2605 422.632 97.0507 422.767 96.8371C423.303 95.9902 423.97 94.9374 425.313 94.1343C426.063 93.6878 427.943 92.7605 429.026 93.86C429.32 94.1524 429.458 94.4932 429.519 94.8159C429.578 94.791 429.638 94.7667 429.703 94.74C430.499 94.426 430.978 94.3943 431.439 94.3638C431.793 94.3402 432.159 94.3164 432.842 94.1226C433.141 94.0376 433.389 93.9513 433.597 93.879C434.228 93.6611 435.017 93.4279 435.734 93.9794C436.481 94.5965 436.423 95.5617 436.385 96.2009C436.318 97.3411 436.142 98.0671 436.024 98.5485C435.981 98.7241 435.933 98.9224 435.93 98.9924C435.914 99.5584 438.188 100.721 439.042 101.163C440.963 102.151 442.626 103.006 442.455 104.583C442.333 105.711 441.268 106.526 439.2 107.067C438.556 107.235 437.962 107.284 437.458 107.294C437.612 107.664 437.675 108.101 437.492 108.576C437.057 109.701 435.599 110.063 433.157 109.656C432.55 109.557 431.734 109.42 430.791 108.942C430.347 108.716 429.979 108.467 429.668 108.249C429.535 108.426 429.355 108.593 429.106 108.715C428.374 109.077 427.521 108.872 426.583 108.065C425.539 107.194 424.795 106.311 424.139 105.533C423.564 104.855 423.068 104.272 422.58 103.956C421.667 103.382 420.502 103.598 419.072 103.941L415.475 104.839Z" fill="#F2F2F2"/>
<path d="M366.053 183.995L365.618 182.883L364.614 182.299C364.661 182.199 364.754 181.956 364.902 181.579C365.715 179.511 368.186 173.219 373.015 164.011C376.387 157.583 380.193 151.23 384.33 145.125C388.474 139.01 391.953 134.636 394.749 131.121C396.858 128.47 398.91 125.978 400.91 123.552C406.252 117.069 411.298 110.944 415.956 103.469C416.997 101.8 419.161 98.3268 419.761 93.3552C420.109 90.4716 419.881 87.51 419.083 84.5543L421.316 83.9087C422.195 87.1736 422.445 90.4526 422.059 93.6543C421.394 99.1666 419.035 102.952 417.902 104.77C413.162 112.377 408.067 118.561 402.673 125.106C400.681 127.524 398.637 130.004 396.537 132.645C393.767 136.128 390.319 140.463 386.228 146.5C382.14 152.532 378.38 158.807 375.051 165.154C370.283 174.246 367.849 180.445 367.049 182.481C366.622 183.568 366.532 183.796 366.053 183.995Z" fill="#F2F2F2"/>
<path d="M413.484 85.0631C413.407 85.0054 413.33 84.9452 413.255 84.8805C411.719 83.5947 410.932 81.4965 410.912 78.6445C410.906 77.3044 411.287 76.0675 412.049 73.6006C412.165 73.2199 412.779 71.304 413.989 68.942C414.779 67.3983 415.213 66.8301 415.843 66.5133C416.544 66.1597 417.307 66.1185 418.04 66.2535C418.146 66.0498 418.299 65.8726 418.513 65.7356C419.399 65.1652 420.175 65.9081 420.6 66.3038C420.811 66.5084 421.074 66.7658 421.399 66.9834C421.909 67.3279 422.28 67.3744 422.841 67.4473C423.377 67.5167 424.044 67.603 424.857 67.9835C426.465 68.7276 427.349 70.0135 427.64 70.4371C429.181 72.6567 429.04 75.0391 428.876 77.7974C428.842 78.3496 428.669 80.3239 427.869 82.6086C427.292 84.257 426.814 84.8241 426.385 85.1904C425.506 85.945 424.589 86.0678 422.385 86.2032C420.081 86.3476 418.926 86.4188 418.041 86.3258C415.985 86.1064 414.693 85.9688 413.484 85.0631Z" fill="#F2F2F2"/>
<path d="M118.837 378.281C103.933 382.022 88.3633 384 72.3497 384C55.0046 384 38.175 381.681 22.1542 377.31C20.4075 370.62 18.4246 363.212 16.1769 355.018C-3.98868 281.446 36.865 229.283 36.865 229.283L46.9441 221.052L137.671 233.676C148.23 286.95 141.358 326.481 118.837 378.281Z" fill="#2F2E41"/>
<path d="M104.058 88.726L61.615 84.3335L30.8436 111.787L40.3934 210.618L36.149 229.286L136.952 233.678L131.646 207.323L139.074 110.688L104.058 88.726Z" fill="#D9B882"/>
<path d="M117.852 140.338H49.9431V250.15H117.852V140.338Z" fill="white"/>
<path d="M108.162 154.785H89.1873C88.6741 154.785 88.2566 154.353 88.2566 153.821C88.2566 153.29 88.6741 152.858 89.1873 152.858H108.162C108.675 152.858 109.093 153.29 109.093 153.821C109.093 154.353 108.675 154.785 108.162 154.785Z" fill="#D9B882"/>
<path d="M108.162 162.193H89.1873C88.6741 162.193 88.2566 161.761 88.2566 161.23C88.2566 160.699 88.6741 160.267 89.1873 160.267H108.162C108.675 160.267 109.093 160.699 109.093 161.23C109.093 161.761 108.675 162.193 108.162 162.193Z" fill="#D9B882"/>
<path d="M108.162 169.601H89.1873C88.6741 169.601 88.2566 169.169 88.2566 168.638C88.2566 168.107 88.6741 167.675 89.1873 167.675H108.162C108.675 167.675 109.093 168.107 109.093 168.638C109.093 169.169 108.675 169.601 108.162 169.601Z" fill="#D9B882"/>
<path d="M107.311 195.531H61.1699C59.922 195.531 58.9067 194.48 58.9067 193.188C58.9067 191.897 59.922 190.846 61.1699 190.846H107.311C108.559 190.846 109.574 191.897 109.574 193.188C109.574 194.48 108.559 195.531 107.311 195.531Z" fill="#E6E6E6"/>
<path d="M81.3536 238.181C90.5341 241.159 99.4603 238.67 101.29 232.624C103.121 226.577 97.1622 219.263 87.978 216.285C84.325 215.044 80.4379 214.726 76.6418 215.358L37.5896 203.249L12.8052 221.599L71.5298 232.247C74.2994 235.008 77.668 237.043 81.3536 238.181Z" fill="#FFB6B6"/>
<path d="M34.8433 109.59C34.8433 109.59 20.6149 118.005 16.5496 135.885L0.288657 207.407C0.288657 207.407 -2.76028 217.924 10.9599 223.183C24.6801 228.442 41.4493 205.829 41.4493 205.829L33.7909 197.903L48.5634 131.152L34.8433 109.59Z" fill="#D9B882"/>
<path d="M70.7687 227.61C61.2247 228.866 52.8623 224.788 52.0909 218.502C51.3195 212.216 58.4307 206.104 67.9783 204.849C71.7855 204.293 75.6659 204.689 79.2949 206.004L119.798 201.211L141.068 223.795L81.4497 223.561C78.2529 225.774 74.5904 227.163 70.7687 227.61Z" fill="#FFB6B6"/>
<path d="M138.457 109.52C138.457 109.52 151.029 120.399 151.985 138.741L155.807 212.109C155.807 212.109 157.016 223.018 142.615 225.691C128.213 228.365 115.559 203.046 115.559 203.046L124.448 196.642L121.279 128.24L138.457 109.52Z" fill="#D9B882"/>
<path d="M81.7756 148.025H57.3707V178.772H81.7756V148.025Z" fill="#D9B882"/>
<path d="M63.8857 170.975L62.2092 178.574L62.1668 178.772H57.3919C57.9649 176.268 58.6758 173.172 59.0047 171.689C59.4185 169.888 60.5009 168.724 61.1905 168.142C61.5407 167.824 61.7954 167.681 61.7954 167.681L63.8857 170.975Z" fill="#E6E6E6"/>
<path d="M80.0036 178.772H75.356L74.9741 170.525L77.5206 167.747L77.5949 167.67C77.5949 167.67 79.5155 169.328 79.6534 172.129C79.7277 173.523 79.8763 176.323 80.0036 178.772Z" fill="#E6E6E6"/>
<path d="M327.518 195.2C285.219 195.2 250.807 159.587 250.807 115.811C250.807 72.0355 285.219 36.4219 327.518 36.4219C369.817 36.4219 404.23 72.0358 404.23 115.811C404.23 159.586 369.817 195.2 327.518 195.2ZM327.518 37.7561C285.93 37.7561 273.369 93.1285 252.096 115.811C223.131 146.695 285.93 193.866 327.518 193.866C369.106 193.866 402.94 158.851 402.94 115.811C402.94 72.7717 369.106 37.7561 327.518 37.7561Z" fill="#E6E6E6"/>
<path d="M331.912 133.423C331.912 134.652 330.949 135.648 329.762 135.648C328.574 135.648 327.611 134.652 327.611 133.423V116.54L322.682 121.645C321.842 122.515 320.478 122.515 319.637 121.645C318.796 120.775 318.796 119.364 319.637 118.494L328.239 109.592C329.078 108.721 330.44 108.72 331.28 109.588L331.284 109.592L339.886 118.494C340.727 119.364 340.727 120.775 339.886 121.645C339.045 122.515 337.682 122.515 336.841 121.645L331.912 116.54V133.423Z" fill="#D9B882"/>
<path d="M355.567 144.55V102.265L336.213 82.2356H312.558C307.807 82.2356 303.956 86.2212 303.956 91.1377V144.55C303.956 149.467 307.807 153.452 312.558 153.452H346.965C351.716 153.452 355.567 149.467 355.567 144.55ZM336.213 95.5888C336.213 99.2761 339.101 102.265 342.664 102.265H351.266V144.55C351.266 147.009 349.341 149.001 346.965 149.001H312.558C310.183 149.001 308.257 147.009 308.257 144.55V91.1377C308.257 88.6795 310.183 86.6866 312.558 86.6866H336.213V95.5888Z" fill="#D9B882"/>
<path d="M73.9775 157.909L65.6765 158.921L66.6036 167.067L74.9046 166.056L73.9775 157.909Z" fill="#2F2E41"/>
<path d="M69.7347 162.605C71.9855 162.605 73.8101 160.717 73.8101 158.387C73.8101 156.058 71.9855 154.17 69.7347 154.17C67.484 154.17 65.6594 156.058 65.6594 158.387C65.6594 160.717 67.484 162.605 69.7347 162.605Z" fill="#FFB6B6"/>
<path d="M67.0478 151.846C64.5082 152.575 64.7447 153.555 63.9752 154.173C62.6194 155.26 62.3427 157.958 63.3107 159.597C63.5693 160.035 64.0754 160.614 63.9423 161.322C63.8402 161.866 63.409 162.232 63.3279 162.298C62.6632 162.844 63.0694 162.242 62.7891 162.664C62.4797 163.131 63.1015 163.66 62.8482 164.459C62.6237 165.167 61.9969 165.186 61.9644 165.618C61.9084 166.362 63.6672 167.629 65.349 167.308C66.8465 167.022 67.8172 165.565 68.0512 164.275C68.2078 163.412 68.1532 161.966 67.4278 161.348C67.326 161.261 67.0514 161.055 66.771 160.677C66.5492 160.378 66.2571 159.985 66.3668 159.675C66.4836 159.345 66.9339 159.457 67.1749 159.126C67.5019 158.678 66.9815 158.052 66.9726 157.349C66.9576 156.159 68.4064 154.548 70.1378 154.56C72.102 154.574 73.06 156.666 73.1606 156.895C73.369 157.37 73.4203 157.848 73.5228 158.803C73.6701 160.174 73.7623 161.034 73.4475 161.966C72.9946 163.307 72.2182 163.262 72.1091 164.231C71.939 165.742 73.6941 167.025 73.8943 167.167C75.3791 168.224 77.4535 168.344 77.7335 167.751C77.9857 167.216 76.5422 166.609 76.4114 165.058C76.298 163.715 77.2983 163.179 76.9667 162.288C76.6016 161.306 75.2943 161.7 74.6007 160.624C73.9533 159.62 74.8549 158.909 74.4487 156.738C74.3627 156.279 74.0708 154.966 73.0928 153.75C72.662 153.214 72.2238 152.669 71.493 152.443C70.675 152.19 68.3912 151.46 67.0478 151.846Z" fill="#2F2E41"/>
<path d="M65.7518 155.758C65.9612 156.663 67.3432 156.95 67.9241 156.995C68.1701 157.014 69.0015 157.079 69.7678 156.62C70.051 156.451 70.1461 156.317 70.4497 156.237C70.8608 156.128 71.0899 156.267 71.7715 156.376C72.5294 156.497 72.9084 156.558 73.0764 156.367C73.3512 156.055 73.014 155.187 72.5879 154.625C71.8 153.585 70.5517 153.385 69.9694 153.292C69.3042 153.185 67.9544 152.97 66.8376 153.824C66.6883 153.938 65.5391 154.839 65.7518 155.758Z" fill="#2F2E41"/>
<path d="M77.6904 167.857L76.8521 178.772H62.2198L62.2092 178.574L61.1906 168.142L61.18 168.021L64.2783 165.265L65.2333 164.409L65.8806 163.838L67.5465 164.013L72.3425 164.508H72.3532L73.966 165.518L76.3746 167.033L77.5206 167.747L77.6904 167.857Z" fill="#E6E6E6"/>
</g>
<defs>
<clipPath id="clip0_2018_307">
<rect width="472" height="384" fill="white"/>
</clipPath>
</defs>
</svg>
