<svg width="450" height="408" viewBox="0 0 450 408" fill="none" xmlns="http://www.w3.org/2000/svg">
<g clip-path="url(#clip0_6_193)">
<path d="M196.678 336.713H8.91607C6.5522 336.711 4.28591 335.77 2.6144 334.099C0.942887 332.427 0.00266038 330.161 0 327.797V72.9022C0.00266038 70.5383 0.942887 68.272 2.6144 66.6005C4.28591 64.929 6.5522 63.9887 8.91607 63.9861H196.678C199.042 63.9887 201.308 64.929 202.98 66.6005C204.651 68.272 205.592 70.5383 205.594 72.9022V327.797C205.592 330.161 204.651 332.427 202.98 334.099C201.308 335.77 199.042 336.711 196.678 336.713Z" fill="white"/>
<path d="M94.3329 130.323C94.333 137.685 92.0041 144.858 87.6797 150.815C83.3552 156.773 77.2569 161.21 70.2576 163.491C70.0483 163.558 69.8392 163.624 69.6266 163.688C68.72 163.967 67.8006 164.204 66.8653 164.407C65.1728 164.774 63.4548 165.013 61.7263 165.121C60.975 165.171 60.2194 165.197 59.4595 165.197C55.5334 165.2 51.6349 164.54 47.9291 163.244C47.8213 163.206 47.7136 163.168 47.6089 163.13C41.6046 160.961 36.3107 157.186 32.304 152.216C28.2973 147.246 25.7316 141.272 24.8864 134.944C24.0412 128.616 24.949 122.178 27.5108 116.331C30.0726 110.483 34.1902 105.451 39.4148 101.783C44.6395 98.1147 50.7708 95.9506 57.1406 95.5268C63.5104 95.103 69.8743 96.4355 75.539 99.3794C81.2036 102.323 85.9516 106.765 89.2656 112.222C92.5795 117.678 94.3323 123.939 94.3329 130.323Z" fill="white"/>
<path d="M58.624 153.428C67.9948 153.428 75.5912 145.832 75.5912 136.461C75.5912 127.09 67.9948 119.494 58.624 119.494C49.2533 119.494 41.6568 127.09 41.6568 136.461C41.6568 145.832 49.2533 153.428 58.624 153.428Z" fill="#D9B882"/>
<path d="M59.6146 145.603L59.6322 144.969C58.4526 144.936 57.4127 144.862 56.6313 144.291C56.4097 144.12 56.2276 143.903 56.0973 143.656C55.9671 143.408 55.8917 143.135 55.8763 142.855C55.8625 142.685 55.8884 142.513 55.9518 142.354C56.0152 142.195 56.1144 142.052 56.2418 141.938C56.537 141.759 56.875 141.663 57.2203 141.66C57.5655 141.657 57.9052 141.747 58.2035 141.92L58.7282 142.161L57.7221 134.809L57.0939 134.895L57.9497 141.149C57.5994 141.019 57.2222 140.979 56.8523 141.032C56.4825 141.085 56.1319 141.23 55.8325 141.454C55.6311 141.629 55.473 141.85 55.3707 142.097C55.2684 142.344 55.2246 142.611 55.2427 142.878C55.2612 143.253 55.3616 143.62 55.5369 143.953C55.7121 144.285 55.958 144.576 56.2573 144.803C57.2613 145.537 58.5661 145.573 59.6146 145.603Z" fill="#2F2E41"/>
<path d="M53.9873 135.434H50.5724V136.068H53.9873V135.434Z" fill="#2F2E41"/>
<path d="M64.7663 135.434H61.3514V136.068H64.7663V135.434Z" fill="#2F2E41"/>
<path d="M63.4445 160.181C63.4895 159.973 63.5129 159.76 63.5143 159.547C63.5131 158.749 63.1954 157.983 62.6308 157.419C62.0663 156.854 61.3009 156.537 60.5026 156.535H56.0641C55.2655 156.536 54.4999 156.854 53.9352 157.418C53.3706 157.983 53.053 158.749 53.0523 159.547C53.0522 159.761 53.0755 159.975 53.122 160.184C51.4465 160.712 49.8627 161.496 48.4269 162.508C48.1478 162.702 47.872 162.911 47.6089 163.13C47.7135 163.168 47.8213 163.206 47.929 163.244C51.6349 164.54 55.5334 165.2 59.4595 165.197C60.2203 165.197 60.9759 165.171 61.7262 165.12C63.4548 165.013 65.1727 164.774 66.8653 164.407C67.8006 164.204 68.7199 163.966 69.6266 163.687C67.8328 162.101 65.7271 160.906 63.4445 160.181Z" fill="#2F2E41"/>
<path d="M62.8739 164.718C62.4625 164.748 62.0665 164.887 61.7263 165.121C63.4548 165.013 65.1728 164.774 66.8653 164.407L62.8739 164.718Z" fill="#2F2E41"/>
<path d="M74.0123 132.43L44.5367 121.647C44.2208 121.532 43.9638 121.295 43.8222 120.99C43.6805 120.685 43.6659 120.337 43.7814 120.021L43.8811 119.549C46.1831 113.257 53.8131 109.297 60.1056 111.599L69.1759 114.917C75.4684 117.219 78.2032 124.67 75.9012 130.962L75.6388 131.675C75.5233 131.991 75.287 132.248 74.982 132.39C74.6769 132.531 74.3281 132.546 74.0123 132.43Z" fill="#2F2E41"/>
<path d="M75.6 133.029C34.5168 134.545 30.9269 129.383 43.4447 121.265L46.1003 116.379L76.5353 127.475L75.6 133.029Z" fill="#2F2E41"/>
<path d="M67.5444 114.143C67.7712 113.388 66.7996 112.429 65.3744 112.001C63.9491 111.572 62.6098 111.837 62.383 112.591C62.1562 113.346 63.1277 114.305 64.553 114.733C65.9783 115.162 67.3176 114.897 67.5444 114.143Z" fill="#2F2E41"/>
<path d="M59.4595 166.148C55.4263 166.152 51.4214 165.474 47.6146 164.141L47.2837 164.023C39.3097 161.142 32.6163 155.525 28.3937 148.173C24.1712 140.82 22.6932 132.209 24.2227 123.869C25.7523 115.529 30.1901 108.002 36.747 102.627C43.3039 97.2516 51.5548 94.376 60.0324 94.5115C68.51 94.6471 76.6648 97.7852 83.0464 103.368C89.428 108.95 93.6229 116.615 94.8849 124.999C96.1469 133.383 94.3944 141.943 89.9388 149.157C85.4833 156.371 78.6137 161.77 70.5516 164.395C70.3263 164.467 70.1143 164.535 69.8988 164.599C68.9983 164.876 68.043 165.125 67.0669 165.337C65.3271 165.714 63.5614 165.959 61.7847 166.07C61.0214 166.121 60.2372 166.148 59.4595 166.148ZM59.4595 96.4009C51.4771 96.4021 43.7506 99.2178 37.6391 104.353C31.5276 109.488 27.4224 116.614 26.0457 124.476C24.6689 132.339 26.1086 140.436 30.1117 147.342C34.1148 154.248 40.4248 159.522 47.9319 162.235L48.246 162.347C51.8499 163.608 55.6413 164.25 59.4595 164.246C60.1946 164.246 60.9356 164.221 61.6621 164.172C63.3446 164.067 65.0167 163.835 66.6642 163.478C67.5875 163.277 68.4902 163.042 69.347 162.779C69.5591 162.715 69.7605 162.651 69.962 162.587C77.6406 160.086 84.1753 154.928 88.3913 148.04C92.6074 141.153 94.2283 132.987 92.9626 125.011C91.697 117.035 87.6279 109.772 81.4867 104.528C75.3456 99.2837 67.5352 96.402 59.4595 96.4009Z" fill="#CCCCCC"/>
<path d="M196.678 336.713H8.91607C6.5522 336.711 4.28591 335.77 2.6144 334.099C0.942887 332.427 0.00266038 330.161 0 327.797V72.9022C0.00266038 70.5383 0.942887 68.272 2.6144 66.6005C4.28591 64.929 6.5522 63.9887 8.91607 63.9861H196.678C199.042 63.9887 201.308 64.929 202.98 66.6005C204.651 68.272 205.592 70.5383 205.594 72.9022V327.797C205.592 330.161 204.651 332.427 202.98 334.099C201.308 335.77 199.042 336.711 196.678 336.713ZM8.91607 65.035C6.83031 65.0374 4.83066 65.867 3.3558 67.3419C1.88094 68.8167 1.05132 70.8164 1.04895 72.9022V327.797C1.05131 329.883 1.88092 331.883 3.35578 333.357C4.83064 334.832 6.83031 335.662 8.91607 335.664H196.678C198.764 335.662 200.764 334.832 202.239 333.357C203.713 331.883 204.543 329.883 204.545 327.797V72.9022C204.543 70.8164 203.713 68.8167 202.239 67.3419C200.764 65.867 198.764 65.0374 196.678 65.035H8.91607Z" fill="#CCCCCC"/>
<path d="M160.33 130.187H107.2C106.086 130.186 105.018 129.743 104.231 128.954C103.444 128.166 103.002 127.098 103.002 125.984C103.002 124.87 103.444 123.802 104.231 123.014C105.018 122.226 106.086 121.782 107.2 121.781H160.33C160.882 121.78 161.429 121.889 161.94 122.099C162.45 122.31 162.914 122.62 163.305 123.01C163.696 123.401 164.006 123.864 164.218 124.375C164.429 124.885 164.538 125.432 164.538 125.984C164.538 126.537 164.429 127.084 164.218 127.594C164.006 128.104 163.696 128.568 163.305 128.958C162.914 129.349 162.45 129.658 161.94 129.869C161.429 130.08 160.882 130.188 160.33 130.187Z" fill="#E6E6E6"/>
<path d="M177.668 144.373H107.2C106.086 144.372 105.018 143.928 104.231 143.14C103.444 142.352 103.002 141.284 103.002 140.17C103.002 139.056 103.444 137.988 104.231 137.2C105.018 136.412 106.086 135.968 107.2 135.967H177.668C178.782 135.968 179.85 136.412 180.637 137.2C181.424 137.988 181.866 139.056 181.866 140.17C181.866 141.284 181.424 142.352 180.637 143.14C179.85 143.928 178.782 144.372 177.668 144.373Z" fill="#E6E6E6"/>
<path d="M160.252 198.782H27.9264C27.374 198.782 26.8268 198.674 26.3163 198.463C25.8057 198.252 25.3417 197.943 24.9509 197.553C24.56 197.162 24.25 196.699 24.0384 196.188C23.8268 195.678 23.718 195.131 23.718 194.579C23.718 194.026 23.8268 193.479 24.0384 192.969C24.25 192.459 24.56 191.995 24.9509 191.605C25.3417 191.214 25.8057 190.905 26.3163 190.694C26.8268 190.483 27.374 190.375 27.9264 190.375H160.252C161.366 190.377 162.434 190.82 163.221 191.608C164.008 192.396 164.45 193.465 164.45 194.579C164.45 195.692 164.008 196.761 163.221 197.549C162.434 198.337 161.366 198.78 160.252 198.782Z" fill="#E6E6E6"/>
<path d="M177.591 212.968H27.9264C27.374 212.968 26.8268 212.86 26.3163 212.649C25.8057 212.438 25.3417 212.129 24.9509 211.738C24.56 211.348 24.25 210.884 24.0384 210.374C23.8268 209.864 23.718 209.317 23.718 208.764C23.718 208.212 23.8268 207.665 24.0384 207.155C24.25 206.644 24.56 206.181 24.9509 205.79C25.3417 205.4 25.8057 205.091 26.3163 204.88C26.8268 204.669 27.374 204.56 27.9264 204.561H177.591C178.143 204.56 178.69 204.669 179.201 204.88C179.711 205.091 180.175 205.4 180.566 205.79C180.957 206.181 181.267 206.644 181.479 207.155C181.69 207.665 181.799 208.212 181.799 208.764C181.799 209.317 181.69 209.864 181.479 210.374C181.267 210.884 180.957 211.348 180.566 211.738C180.175 212.129 179.711 212.438 179.201 212.649C178.69 212.86 178.143 212.968 177.591 212.968Z" fill="#E6E6E6"/>
<path d="M160.252 245.572H27.9264C26.8116 245.572 25.7425 245.129 24.9543 244.341C24.166 243.553 23.7232 242.484 23.7232 241.369C23.7232 240.254 24.166 239.185 24.9543 238.397C25.7425 237.608 26.8116 237.166 27.9264 237.166H160.252C161.367 237.166 162.436 237.608 163.225 238.397C164.013 239.185 164.456 240.254 164.456 241.369C164.456 242.484 164.013 243.553 163.225 244.341C162.436 245.129 161.367 245.572 160.252 245.572Z" fill="#E6E6E6"/>
<path d="M177.591 259.758H27.9264C26.8116 259.758 25.7425 259.315 24.9543 258.527C24.166 257.739 23.7232 256.669 23.7232 255.555C23.7232 254.44 24.166 253.371 24.9543 252.583C25.7425 251.794 26.8116 251.351 27.9264 251.351H177.591C178.705 251.351 179.775 251.794 180.563 252.583C181.351 253.371 181.794 254.44 181.794 255.555C181.794 256.669 181.351 257.739 180.563 258.527C179.775 259.315 178.705 259.758 177.591 259.758Z" fill="#E6E6E6"/>
<path d="M160.252 292.362H27.9264C26.8116 292.362 25.7425 291.919 24.9543 291.131C24.166 290.343 23.7232 289.274 23.7232 288.159C23.7232 287.044 24.166 285.975 24.9543 285.187C25.7425 284.399 26.8116 283.956 27.9264 283.956H160.252C161.367 283.956 162.436 284.399 163.225 285.187C164.013 285.975 164.456 287.044 164.456 288.159C164.456 289.274 164.013 290.343 163.225 291.131C162.436 291.919 161.367 292.362 160.252 292.362Z" fill="#E6E6E6"/>
<path d="M177.591 306.548H27.9264C26.8116 306.548 25.7425 306.105 24.9543 305.317C24.166 304.529 23.7232 303.46 23.7232 302.345C23.7232 301.23 24.166 300.161 24.9543 299.373C25.7425 298.585 26.8116 298.142 27.9264 298.142H177.591C178.705 298.142 179.775 298.585 180.563 299.373C181.351 300.161 181.794 301.23 181.794 302.345C181.794 303.46 181.351 304.529 180.563 305.317C179.775 306.105 178.705 306.548 177.591 306.548Z" fill="#E6E6E6"/>
<path d="M441.084 272.727L253.322 272.727C250.958 272.725 248.692 271.784 247.02 270.113C245.349 268.441 244.408 266.175 244.406 263.811L244.405 8.91624C244.408 6.55237 245.348 4.28607 247.02 2.61456C248.691 0.943042 250.958 0.00280966 253.321 0.000147568L441.084 0C443.448 0.00265867 445.714 0.942877 447.385 2.61439C449.057 4.2859 449.997 6.5522 450 8.91607L450 263.811C449.997 266.175 449.057 268.441 447.386 270.113C445.714 271.784 443.448 272.725 441.084 272.727Z" fill="white"/>
<path d="M441.084 272.727L253.322 272.727C250.958 272.725 248.692 271.784 247.02 270.113C245.349 268.441 244.408 266.175 244.406 263.811L244.405 8.91624C244.408 6.55237 245.348 4.28607 247.02 2.61456C248.691 0.943042 250.958 0.00280966 253.321 0.000147568L441.084 0C443.448 0.00265867 445.714 0.942877 447.385 2.61439C449.057 4.2859 449.997 6.5522 450 8.91607L450 263.811C449.997 266.175 449.057 268.441 447.386 270.113C445.714 271.784 443.448 272.725 441.084 272.727ZM253.321 1.0491C251.236 1.05146 249.236 1.88108 247.761 3.35595C246.286 4.83081 245.457 6.83047 245.454 8.91624L245.455 263.811C245.457 265.897 246.287 267.897 247.761 269.372C249.236 270.846 251.236 271.676 253.322 271.678L441.084 271.678C443.17 271.676 445.169 270.846 446.644 269.371C448.119 267.897 448.949 265.897 448.951 263.811L448.951 8.91608C448.948 6.83031 448.119 4.83065 446.644 3.35579C445.169 1.88093 443.169 1.05131 441.084 1.04895L253.321 1.0491Z" fill="#CCCCCC"/>
<path d="M338.827 65.9897C338.827 72.887 336.781 79.6294 332.949 85.3643C329.117 91.0992 323.671 95.569 317.299 98.2085C310.926 100.848 303.914 101.539 297.15 100.193C290.385 98.8474 284.171 95.5261 279.294 90.6489C274.417 85.7718 271.095 79.558 269.75 72.7932C268.404 66.0284 269.095 59.0166 271.734 52.6443C274.374 46.272 278.844 40.8255 284.578 36.9936C290.313 33.1616 297.056 31.1163 303.953 31.1163C313.201 31.1192 322.07 34.7943 328.609 41.3337C335.148 47.8731 338.824 56.7416 338.827 65.9897Z" fill="white"/>
<path d="M320.071 71.9569C319.69 94.2603 286.514 94.2568 286.137 71.9562C286.517 49.6535 319.693 49.657 320.071 71.9569Z" fill="#D9B882"/>
<path d="M302.43 78.8796L302.413 78.2455C306.783 78.829 307.724 73.4129 303.317 75.4378L304.323 68.0857L304.951 68.1718L304.095 74.4257C308.736 73.7349 307.019 79.5133 302.43 78.8796Z" fill="#2F2E41"/>
<path d="M311.472 68.7111H308.058V69.3451H311.472V68.7111Z" fill="#2F2E41"/>
<path d="M300.693 68.7111H297.279V69.3451H300.693V68.7111Z" fill="#2F2E41"/>
<path d="M308.604 95.6797C309.27 91.1874 304.01 92.0751 301.227 92.0307C300.778 92.0321 300.335 92.1336 299.93 92.3278C299.526 92.522 299.17 92.804 298.888 93.1533C298.606 93.5025 298.405 93.9103 298.301 94.3468C298.197 94.7833 298.191 95.2376 298.285 95.6766C296.13 96.3425 294.135 97.4431 292.423 98.9103C299.639 101.427 307.481 101.513 314.751 99.1576C312.979 97.5659 310.881 96.3792 308.604 95.6797Z" fill="#2F2E41"/>
<path d="M295.127 63.9319C298.271 62.1146 302.084 63.5088 305.333 64.271C311.495 66.1654 320.137 63.7932 320.886 56.4522C321.666 49.625 312.327 45.8199 309.342 52.615L310.211 52.5014C300.53 38.1139 283.69 38.6595 283.8 58.4399C283.765 59.0509 284.716 59.0489 284.751 58.4395C284.395 46.7833 292.109 38.8154 303.014 46.3062C305.449 48.2128 307.597 50.4611 309.39 52.9814C310.525 54.2542 310.772 48.7731 316.208 50.2087C322.19 52.5262 320.238 61.0919 314.891 62.9723C308.284 66.3475 301.129 59.8034 294.647 63.1102C294.542 63.1761 294.468 63.28 294.438 63.3999C294.409 63.5198 294.428 63.6464 294.49 63.7529C294.552 63.8595 294.653 63.9377 294.772 63.9711C294.891 64.0045 295.018 63.9904 295.127 63.9319Z" fill="#2F2E41"/>
<path d="M303.953 101.814C294.947 101.807 286.275 98.4046 279.667 92.2866C273.058 86.1687 268.999 77.7844 268.298 68.806C267.597 59.8276 270.306 50.9148 275.885 43.8453C281.464 36.7759 289.503 32.0692 298.398 30.664C307.294 29.2588 316.392 31.2584 323.878 36.2639C331.365 41.2695 336.69 48.9132 338.79 57.6705C340.891 66.4278 339.613 75.6552 335.212 83.5123C330.811 91.3694 323.61 97.2788 315.045 100.062C311.463 101.227 307.72 101.818 303.953 101.814ZM303.953 32.0674C297.243 32.0665 290.682 34.0556 285.102 37.7832C279.522 41.5108 275.173 46.8094 272.605 53.009C270.036 59.2085 269.364 66.0305 270.673 72.6122C271.982 79.1939 275.213 85.2395 279.958 89.9846C284.703 94.7297 290.749 97.961 297.331 99.27C303.912 100.579 310.734 99.9066 316.934 97.3381C323.133 94.7697 328.432 90.4204 332.16 84.8404C335.887 79.2604 337.876 72.7002 337.875 65.9897C337.865 56.996 334.288 48.3737 327.929 42.0142C321.569 35.6548 312.947 32.0776 303.953 32.0674Z" fill="#CCCCCC"/>
<path d="M404.735 66.2014L351.605 66.2015C350.49 66.2015 349.421 65.7587 348.633 64.9704C347.845 64.1822 347.402 63.113 347.402 61.9983C347.402 60.8835 347.845 59.8144 348.633 59.0262C349.421 58.2379 350.49 57.7951 351.605 57.7951L404.735 57.795C405.85 57.795 406.919 58.2379 407.707 59.0261C408.496 59.8144 408.938 60.8835 408.938 61.9982C408.938 63.113 408.496 64.1821 407.707 64.9704C406.919 65.7586 405.85 66.2014 404.735 66.2014Z" fill="#E6E6E6"/>
<path d="M422.073 80.3873L351.605 80.3873C351.053 80.388 350.505 80.2798 349.995 80.0688C349.484 79.8579 349.02 79.5484 348.63 79.1581C348.239 78.7677 347.929 78.3041 347.717 77.7938C347.505 77.2835 347.397 76.7365 347.397 76.1841C347.397 75.6317 347.505 75.0847 347.717 74.5744C347.929 74.0641 348.239 73.6005 348.63 73.2101C349.02 72.8198 349.484 72.5103 349.995 72.2993C350.505 72.0884 351.053 71.9802 351.605 71.9809L422.073 71.9808C423.188 71.9808 424.257 72.4237 425.046 73.2119C425.834 74.0002 426.277 75.0693 426.277 76.184C426.277 77.2988 425.834 78.3679 425.046 79.1562C424.257 79.9444 423.188 80.3873 422.073 80.3873Z" fill="#E6E6E6"/>
<path d="M404.658 134.796L272.332 134.796C271.218 134.794 270.15 134.351 269.363 133.563C268.576 132.775 268.134 131.706 268.134 130.593C268.134 129.479 268.576 128.41 269.363 127.622C270.15 126.834 271.218 126.391 272.332 126.389L404.658 126.389C405.773 126.389 406.842 126.832 407.63 127.62C408.418 128.409 408.861 129.478 408.861 130.592C408.861 131.707 408.418 132.776 407.63 133.565C406.842 134.353 405.773 134.796 404.658 134.796Z" fill="#E6E6E6"/>
<path d="M421.996 148.981L272.332 148.982C271.78 148.982 271.232 148.874 270.722 148.663C270.211 148.452 269.747 148.143 269.356 147.752C268.966 147.362 268.656 146.898 268.444 146.388C268.232 145.878 268.124 145.331 268.124 144.778C268.124 144.226 268.232 143.679 268.444 143.169C268.656 142.658 268.966 142.195 269.356 141.804C269.747 141.414 270.211 141.105 270.722 140.894C271.232 140.683 271.78 140.575 272.332 140.575L421.996 140.575C423.111 140.575 424.18 141.018 424.968 141.806C425.757 142.594 426.199 143.664 426.199 144.778C426.199 145.893 425.757 146.962 424.968 147.75C424.18 148.539 423.111 148.981 421.996 148.981Z" fill="#E6E6E6"/>
<path d="M404.658 181.586L272.332 181.586C271.218 181.585 270.15 181.141 269.363 180.353C268.576 179.565 268.134 178.497 268.134 177.383C268.134 176.269 268.576 175.201 269.363 174.413C270.15 173.624 271.218 173.181 272.332 173.18L404.658 173.18C405.773 173.18 406.842 173.622 407.63 174.411C408.418 175.199 408.861 176.268 408.861 177.383C408.861 178.498 408.418 179.567 407.63 180.355C406.842 181.143 405.773 181.586 404.658 181.586Z" fill="#E6E6E6"/>
<path d="M421.996 195.772L272.332 195.772C271.78 195.773 271.232 195.664 270.722 195.453C270.211 195.243 269.747 194.933 269.356 194.543C268.966 194.152 268.656 193.689 268.444 193.178C268.232 192.668 268.124 192.121 268.124 191.569C268.124 191.016 268.232 190.469 268.444 189.959C268.656 189.449 268.966 188.985 269.356 188.595C269.747 188.204 270.211 187.895 270.722 187.684C271.232 187.473 271.78 187.365 272.332 187.365L421.996 187.365C423.111 187.365 424.18 187.808 424.968 188.596C425.757 189.385 426.199 190.454 426.199 191.569C426.199 192.683 425.757 193.752 424.968 194.541C424.18 195.329 423.111 195.772 421.996 195.772Z" fill="#E6E6E6"/>
<path d="M404.658 228.376L272.332 228.376C271.217 228.376 270.148 227.934 269.36 227.145C268.572 226.357 268.129 225.288 268.129 224.173C268.129 223.058 268.572 221.989 269.36 221.201C270.148 220.413 271.217 219.97 272.332 219.97L404.658 219.97C405.773 219.97 406.842 220.413 407.63 221.201C408.418 221.989 408.861 223.058 408.861 224.173C408.861 225.288 408.418 226.357 407.63 227.145C406.842 227.933 405.773 228.376 404.658 228.376Z" fill="#E6E6E6"/>
<path d="M421.996 242.562L272.332 242.562C271.217 242.562 270.148 242.119 269.36 241.331C268.572 240.543 268.129 239.474 268.129 238.359C268.129 237.244 268.572 236.175 269.36 235.387C270.148 234.599 271.217 234.156 272.332 234.156L421.996 234.156C423.111 234.156 424.18 234.598 424.968 235.387C425.757 236.175 426.199 237.244 426.199 238.359C426.199 239.474 425.757 240.543 424.968 241.331C424.18 242.119 423.111 242.562 421.996 242.562Z" fill="#E6E6E6"/>
<path d="M327.797 382.343H140.035C137.671 382.34 135.405 381.4 133.733 379.728C132.062 378.057 131.121 375.79 131.119 373.427V118.532C131.121 116.168 132.062 113.901 133.733 112.23C135.405 110.558 137.671 109.618 140.035 109.615H327.797C330.161 109.618 332.427 110.558 334.099 112.23C335.77 113.901 336.711 116.168 336.713 118.532V373.427C336.711 375.79 335.77 378.057 334.099 379.728C332.427 381.4 330.161 382.34 327.797 382.343Z" fill="white"/>
<path d="M155.695 175.236C155.689 179.826 156.592 184.372 158.351 188.611C160.111 192.85 162.693 196.699 165.947 199.936C166.22 200.205 166.499 200.475 166.781 200.738C168.481 202.326 170.335 203.739 172.317 204.957C172.697 205.192 173.078 205.417 173.468 205.636C175.471 206.765 177.583 207.692 179.77 208.403C180.147 208.527 180.531 208.644 180.914 208.752C187.868 210.746 195.268 210.538 202.099 208.156C202.232 208.109 202.365 208.061 202.495 208.014C208.491 205.832 213.773 202.048 217.768 197.072C221.762 192.097 224.315 186.121 225.149 179.795C225.982 173.47 225.065 167.037 222.496 161.196C219.927 155.356 215.805 150.332 210.579 146.672C205.353 143.012 199.223 140.855 192.856 140.437C186.489 140.019 180.13 141.356 174.47 144.301C168.81 147.247 164.067 151.689 160.757 157.143C157.446 162.597 155.695 168.855 155.695 175.236Z" fill="white"/>
<path d="M183.204 192.329C183.22 195.03 182.225 197.64 180.412 199.644C178.619 201.612 175.95 202.917 173.256 202.377C170.775 201.88 168.76 199.712 169.011 197.089C169.053 196.521 169.218 195.969 169.495 195.471C169.772 194.974 170.154 194.542 170.615 194.207C171.076 193.873 171.604 193.642 172.163 193.532C172.722 193.423 173.298 193.436 173.851 193.572C176.208 194.183 177.147 197.579 175.183 199.173C174.712 199.556 174.035 198.887 174.51 198.501C174.804 198.233 175.025 197.895 175.154 197.519C175.283 197.144 175.316 196.741 175.249 196.35C175.182 195.958 175.019 195.589 174.773 195.277C174.527 194.965 174.206 194.72 173.841 194.564C173.41 194.426 172.953 194.388 172.504 194.452C172.056 194.517 171.629 194.683 171.254 194.937C170.88 195.191 170.568 195.527 170.342 195.92C170.117 196.313 169.984 196.751 169.953 197.203C169.797 199.414 171.491 201.079 173.568 201.471C175.815 201.895 178.043 200.745 179.566 199.158C181.311 197.315 182.274 194.867 182.252 192.329C182.257 192.205 182.308 192.088 182.397 192.002C182.486 191.917 182.605 191.869 182.728 191.869C182.851 191.869 182.97 191.917 183.059 192.002C183.147 192.088 183.199 192.205 183.204 192.329Z" fill="#2F2E41"/>
<path d="M192.491 198.375C201.861 198.375 209.458 190.778 209.458 181.408C209.458 172.037 201.861 164.44 192.491 164.44C183.12 164.44 175.523 172.037 175.523 181.408C175.523 190.778 183.12 198.375 192.491 198.375Z" fill="#D9B882"/>
<path d="M191.623 188.647L191.605 188.013C192.784 187.98 193.824 187.906 194.606 187.335C194.827 187.164 195.009 186.948 195.14 186.7C195.27 186.452 195.345 186.179 195.361 185.9C195.375 185.729 195.349 185.557 195.285 185.398C195.222 185.239 195.123 185.097 194.995 184.982C194.7 184.803 194.362 184.707 194.017 184.704C193.672 184.701 193.332 184.791 193.034 184.965L192.509 185.205L193.515 177.853L194.143 177.939L193.287 184.193C193.638 184.063 194.015 184.023 194.385 184.076C194.755 184.129 195.105 184.274 195.405 184.498C195.606 184.674 195.764 184.894 195.866 185.141C195.969 185.388 196.013 185.655 195.994 185.922C195.976 186.298 195.876 186.664 195.7 186.997C195.525 187.33 195.279 187.62 194.98 187.847C193.976 188.581 192.671 188.618 191.623 188.647Z" fill="#2F2E41"/>
<path d="M200.665 178.479H197.25V179.113H200.665V178.479Z" fill="#2F2E41"/>
<path d="M189.886 178.479H186.471V179.113H189.886V178.479Z" fill="#2F2E41"/>
<path d="M180.914 208.752C187.868 210.746 195.268 210.538 202.099 208.156C202.232 208.109 202.365 208.061 202.495 208.013C200.885 206.772 199.065 205.831 197.121 205.236C197.259 204.749 197.256 204.233 197.115 203.746C196.922 203.13 196.536 202.592 196.014 202.213C195.491 201.833 194.86 201.633 194.214 201.641H190.08C189.435 201.632 188.805 201.832 188.283 202.211C187.762 202.59 187.377 203.127 187.185 203.743C187.044 204.23 187.042 204.748 187.179 205.236C185.467 205.761 183.849 206.553 182.386 207.585C182.091 207.792 181.805 208.007 181.53 208.232C181.32 208.4 181.114 208.575 180.914 208.752Z" fill="#2F2E41"/>
<path d="M205.783 179.608C205.783 182.467 207.19 184.839 209.019 185.251C209.206 185.292 209.396 185.314 209.587 185.314C211.682 185.314 213.391 182.756 213.391 179.608C213.439 177.985 212.921 176.396 211.927 175.112C211.617 174.738 211.237 174.428 210.807 174.202C210.431 174.005 210.012 173.902 209.587 173.901C209.003 173.908 208.436 174.099 207.967 174.446C206.677 175.359 205.783 177.328 205.783 179.608Z" fill="#3F3D56"/>
<path d="M171.86 179.608C171.86 182.068 172.9 184.166 174.358 184.969C174.758 185.192 175.207 185.311 175.665 185.314C175.766 185.314 175.868 185.308 175.969 185.295C177.922 185.064 179.469 182.604 179.469 179.608C179.469 177.208 178.477 175.15 177.075 174.31C176.652 174.047 176.163 173.905 175.665 173.901C175.239 173.902 174.821 174.005 174.444 174.202C174.013 174.43 173.632 174.74 173.322 175.115C172.33 176.399 171.814 177.986 171.86 179.608Z" fill="#3F3D56"/>
<path d="M174.596 184.421C174.671 184.421 174.746 184.403 174.813 184.369C174.88 184.334 174.938 184.284 174.982 184.223C175.026 184.162 175.055 184.091 175.066 184.016C175.077 183.941 175.07 183.865 175.046 183.794C174.137 181.091 173.864 178.215 174.247 175.389C174.631 172.564 175.66 169.865 177.256 167.502C178.852 165.139 180.972 163.176 183.45 161.765C185.928 160.354 188.698 159.534 191.545 159.368C194.391 159.202 197.238 159.695 199.863 160.807C202.489 161.92 204.822 163.624 206.682 165.785C208.542 167.946 209.879 170.507 210.588 173.269C211.297 176.031 211.36 178.919 210.772 181.709C210.746 181.833 210.77 181.961 210.839 182.067C210.908 182.172 211.016 182.246 211.139 182.272C211.262 182.298 211.391 182.274 211.496 182.205C211.602 182.137 211.676 182.029 211.702 181.906C212.321 178.972 212.256 175.935 211.51 173.032C210.765 170.128 209.359 167.435 207.404 165.162C205.448 162.89 202.995 161.099 200.235 159.929C197.475 158.759 194.482 158.241 191.489 158.415C188.496 158.59 185.583 159.453 182.978 160.936C180.373 162.419 178.144 164.483 176.466 166.968C174.789 169.453 173.706 172.291 173.304 175.262C172.901 178.232 173.189 181.256 174.145 184.098C174.177 184.192 174.237 184.274 174.318 184.332C174.399 184.39 174.496 184.421 174.596 184.421Z" fill="#3F3D56"/>
<path d="M201.014 170.414C201.296 170.874 201.413 171.416 201.346 171.95C201.279 172.485 201.033 172.982 200.647 173.358C199.726 174.387 198.257 174.452 196.981 174.261C195.55 174.047 194.032 173.376 192.583 173.828C191.348 174.213 190.467 175.333 189.184 175.614C188.047 175.864 186.686 175.534 186.287 174.321C186.095 173.738 187.013 173.488 187.204 174.068C187.462 174.853 188.576 174.837 189.215 174.62C190.238 174.271 191.026 173.424 192.032 173.02C193.23 172.648 194.514 172.652 195.71 173.03C196.848 173.286 198.157 173.666 199.29 173.187C200.129 172.833 200.796 171.718 200.193 170.894C199.831 170.4 200.656 169.925 201.014 170.414Z" fill="#2F2E41"/>
<path d="M190.568 211.06C187.213 211.063 183.875 210.593 180.651 209.666C180.272 209.559 179.874 209.438 179.474 209.307C177.228 208.576 175.059 207.624 173.001 206.465C172.615 206.248 172.227 206.02 171.818 205.767C169.783 204.515 167.878 203.063 166.132 201.432C165.844 201.164 165.558 200.888 165.279 200.612C159.788 195.137 156.222 188.029 155.116 180.354C154.01 172.679 155.424 164.852 159.147 158.05C162.869 151.247 168.698 145.836 175.758 142.63C182.818 139.423 190.728 138.594 198.3 140.267C205.871 141.94 212.696 146.025 217.747 151.908C222.799 157.791 225.806 165.154 226.315 172.891C226.825 180.629 224.81 188.323 220.573 194.817C216.336 201.312 210.107 206.256 202.82 208.907C202.689 208.955 202.554 209.003 202.418 209.052C198.61 210.385 194.603 211.064 190.568 211.06ZM190.568 141.313C183.854 141.314 177.292 143.306 171.711 147.038C166.13 150.771 161.782 156.075 159.218 162.28C156.654 168.485 155.988 175.311 157.305 181.894C158.623 188.478 161.864 194.522 166.619 199.262C166.882 199.522 167.155 199.785 167.43 200.042C169.084 201.587 170.888 202.962 172.815 204.147C173.203 204.387 173.569 204.602 173.933 204.806C175.882 205.904 177.936 206.806 180.064 207.499C180.44 207.622 180.812 207.735 181.172 207.836C187.937 209.778 195.138 209.576 201.784 207.259L202.168 207.12C209.663 204.392 215.957 199.111 219.945 192.203C223.933 185.296 225.36 177.205 223.975 169.35C222.591 161.496 218.483 154.38 212.374 149.253C206.264 144.125 198.544 141.314 190.568 141.313Z" fill="#CCCCCC"/>
<path d="M327.797 382.343H140.035C137.671 382.34 135.405 381.4 133.733 379.728C132.062 378.057 131.121 375.79 131.119 373.427V118.532C131.121 116.168 132.062 113.901 133.733 112.23C135.405 110.558 137.671 109.618 140.035 109.615H327.797C330.161 109.618 332.427 110.558 334.099 112.23C335.77 113.901 336.711 116.168 336.713 118.532V373.427C336.711 375.79 335.77 378.057 334.099 379.728C332.427 381.4 330.161 382.34 327.797 382.343ZM140.035 110.664C137.949 110.667 135.949 111.496 134.475 112.971C133 114.446 132.17 116.446 132.168 118.532V373.427C132.17 375.512 133 377.512 134.475 378.987C135.949 380.462 137.949 381.291 140.035 381.294H327.797C329.883 381.291 331.883 380.462 333.357 378.987C334.832 377.512 335.662 375.512 335.664 373.427V118.532C335.662 116.446 334.832 114.446 333.357 112.971C331.883 111.496 329.883 110.667 327.797 110.664H140.035Z" fill="#3F3D56"/>
<path d="M291.449 175.817H238.318C237.204 175.817 236.134 175.374 235.346 174.586C234.558 173.797 234.115 172.728 234.115 171.614C234.115 170.499 234.558 169.43 235.346 168.641C236.134 167.853 237.204 167.41 238.318 167.41H291.449C292.563 167.41 293.632 167.853 294.421 168.641C295.209 169.43 295.652 170.499 295.652 171.614C295.652 172.728 295.209 173.797 294.421 174.586C293.632 175.374 292.563 175.817 291.449 175.817Z" fill="#D9B882"/>
<path d="M308.787 190.003H238.318C237.204 190.003 236.134 189.56 235.346 188.772C234.558 187.983 234.115 186.914 234.115 185.799C234.115 184.685 234.558 183.616 235.346 182.827C236.134 182.039 237.204 181.596 238.318 181.596H308.787C309.902 181.596 310.971 182.039 311.759 182.827C312.547 183.616 312.99 184.685 312.99 185.799C312.99 186.914 312.547 187.983 311.759 188.772C310.971 189.56 309.902 190.003 308.787 190.003Z" fill="#D9B882"/>
<path d="M291.371 244.411H159.045C157.93 244.411 156.861 243.968 156.073 243.18C155.285 242.392 154.842 241.323 154.842 240.208C154.842 239.093 155.285 238.024 156.073 237.236C156.861 236.447 157.93 236.005 159.045 236.005H291.371C292.486 236.005 293.555 236.447 294.343 237.236C295.132 238.024 295.574 239.093 295.574 240.208C295.574 241.323 295.132 242.392 294.343 243.18C293.555 243.968 292.486 244.411 291.371 244.411Z" fill="#CCCCCC"/>
<path d="M308.71 258.597H159.045C157.93 258.597 156.861 258.154 156.073 257.366C155.285 256.578 154.842 255.509 154.842 254.394C154.842 253.279 155.285 252.21 156.073 251.422C156.861 250.633 157.93 250.191 159.045 250.191H308.71C309.824 250.191 310.893 250.633 311.682 251.422C312.47 252.21 312.913 253.279 312.913 254.394C312.913 255.509 312.47 256.578 311.682 257.366C310.893 258.154 309.824 258.597 308.71 258.597Z" fill="#CCCCCC"/>
<path d="M291.371 291.201H159.045C157.931 291.2 156.864 290.757 156.076 289.968C155.289 289.18 154.847 288.112 154.847 286.998C154.847 285.884 155.289 284.816 156.076 284.028C156.864 283.24 157.931 282.796 159.045 282.795H291.371C292.486 282.795 293.555 283.238 294.343 284.026C295.132 284.814 295.574 285.883 295.574 286.998C295.574 288.113 295.132 289.182 294.343 289.97C293.555 290.759 292.486 291.201 291.371 291.201Z" fill="#CCCCCC"/>
<path d="M308.709 305.387H159.045C157.931 305.386 156.864 304.942 156.076 304.154C155.289 303.366 154.847 302.298 154.847 301.184C154.847 300.07 155.289 299.002 156.076 298.214C156.864 297.426 157.931 296.982 159.045 296.981H308.709C309.824 296.981 310.893 297.424 311.682 298.212C312.47 299 312.913 300.069 312.913 301.184C312.913 302.299 312.47 303.368 311.682 304.156C310.893 304.944 309.824 305.387 308.709 305.387Z" fill="#CCCCCC"/>
<path d="M291.371 337.992H159.045C157.93 337.992 156.861 337.549 156.073 336.761C155.285 335.972 154.842 334.903 154.842 333.788C154.842 332.674 155.285 331.605 156.073 330.816C156.861 330.028 157.93 329.585 159.045 329.585H291.371C292.486 329.585 293.555 330.028 294.343 330.816C295.132 331.605 295.574 332.674 295.574 333.788C295.574 334.903 295.132 335.972 294.343 336.761C293.555 337.549 292.486 337.992 291.371 337.992Z" fill="#CCCCCC"/>
<path d="M308.71 352.178H159.045C157.93 352.178 156.861 351.735 156.073 350.946C155.285 350.158 154.842 349.089 154.842 347.974C154.842 346.86 155.285 345.79 156.073 345.002C156.861 344.214 157.93 343.771 159.045 343.771H308.71C309.824 343.771 310.893 344.214 311.682 345.002C312.47 345.79 312.913 346.86 312.913 347.974C312.913 349.089 312.47 350.158 311.682 350.946C310.893 351.735 309.824 352.178 308.71 352.178Z" fill="#CCCCCC"/>
<path d="M325.618 324.301C320.176 324.295 314.786 325.361 309.756 327.44C304.727 329.518 300.156 332.568 296.306 336.414C292.455 340.26 289.401 344.827 287.317 349.855C285.233 354.882 284.16 360.271 284.16 365.713C284.16 371.155 285.233 376.544 287.317 381.572C289.401 386.599 292.455 391.166 296.305 395.012C300.156 398.858 304.727 401.908 309.756 403.986C314.786 406.065 320.176 407.131 325.618 407.125C336.589 407.106 347.104 402.734 354.854 394.97C362.605 387.206 366.958 376.684 366.958 365.713C366.958 354.743 362.605 344.22 354.854 336.456C347.104 328.692 336.589 324.32 325.618 324.301Z" fill="#D9B882"/>
<path d="M321.689 382.912C320.599 382.914 319.538 382.561 318.665 381.907L318.611 381.866L307.223 373.155C306.159 372.338 305.463 371.132 305.288 369.802C305.113 368.472 305.473 367.126 306.289 366.062C307.105 364.997 308.311 364.3 309.641 364.124C310.97 363.948 312.316 364.307 313.381 365.122L320.758 370.778L338.189 348.038C338.593 347.51 339.097 347.068 339.672 346.736C340.247 346.403 340.882 346.187 341.541 346.1C342.2 346.013 342.869 346.057 343.511 346.229C344.153 346.4 344.754 346.697 345.281 347.101L345.283 347.102L345.175 347.252L345.286 347.102C346.349 347.919 347.045 349.125 347.221 350.455C347.396 351.785 347.037 353.131 346.222 354.196L325.719 380.932C325.245 381.548 324.635 382.047 323.937 382.389C323.238 382.731 322.471 382.908 321.693 382.906L321.689 382.912Z" fill="white"/>
</g>
<defs>
<clipPath id="clip0_6_193">
<rect width="450" height="407.125" fill="white"/>
</clipPath>
</defs>
</svg>
